<?xml version="1.0" standalone="no"?>
<!DOCTYPE svg PUBLIC "-//W3C//DTD SVG 20010904//EN"
 "http://www.w3.org/TR/2001/REC-SVG-20010904/DTD/svg10.dtd">
<svg version="1.0" xmlns="http://www.w3.org/2000/svg"
 width="1522.000000pt" height="1522.000000pt" viewBox="0 0 1522.000000 1522.000000"
 preserveAspectRatio="xMidYMid meet">
<metadata>
Created by potrace 1.11, written by Peter Selinger 2001-2013
</metadata>
<g transform="translate(0.000000,1522.000000) scale(0.100000,-0.100000)"
fill="#000000" stroke="none">
<path d="M7085 13723 c-231 -18 -653 -88 -913 -152 -358 -89 -444 -115 -722
-221 -74 -29 -166 -63 -205 -77 -113 -40 -566 -266 -750 -375 -155 -91 -244
-149 -472 -307 -106 -72 -386 -296 -508 -405 -311 -278 -615 -610 -838 -915
-42 -58 -83 -113 -91 -122 -26 -31 -202 -300 -275 -420 -77 -127 -283 -524
-344 -664 -86 -195 -256 -663 -277 -760 -4 -22 -31 -131 -59 -242 -77 -308
-138 -657 -161 -928 -13 -155 -13 -954 0 -1110 22 -262 86 -627 161 -928 28
-111 55 -220 59 -242 21 -96 191 -564 277 -760 54 -123 275 -552 325 -630 24
-39 59 -97 78 -130 32 -56 190 -292 217 -325 7 -8 48 -63 90 -121 225 -307
526 -636 844 -920 119 -106 398 -329 502 -400 228 -158 317 -216 472 -307 184
-109 637 -335 750 -375 39 -14 131 -48 205 -77 204 -78 320 -117 449 -151 449
-119 828 -191 1156 -219 156 -13 954 -13 1110 0 262 22 631 86 930 162 110 27
225 56 255 63 68 17 241 77 420 145 74 29 167 63 205 77 113 40 566 266 750
375 155 91 244 149 472 307 104 71 383 294 502 400 318 284 619 613 844 920
42 58 83 113 91 122 26 31 202 300 275 420 77 127 283 524 344 664 86 195 256
663 277 760 4 22 31 131 59 242 56 222 111 512 143 746 17 130 21 222 25 642
5 494 -1 654 -33 885 -27 196 -84 491 -135 693 -28 111 -55 220 -59 242 -22
102 -196 578 -282 770 -70 155 -262 527 -339 654 -73 120 -249 389 -275 420
-8 9 -49 64 -91 122 -223 305 -527 637 -838 915 -123 110 -403 333 -508 405
-234 161 -318 215 -472 307 -184 108 -637 335 -750 375 -38 14 -131 48 -205
77 -179 68 -352 128 -420 145 -30 7 -145 36 -255 63 -217 55 -500 109 -745
143 -140 20 -206 22 -685 24 -291 1 -552 1 -580 -2z m958 -293 c1239 -102
2340 -545 3292 -1323 772 -632 1404 -1509 1755 -2437 353 -934 465 -1922 329
-2900 -122 -877 -439 -1705 -936 -2448 -559 -835 -1325 -1516 -2212 -1966
-716 -363 -1382 -550 -2231 -627 -174 -16 -675 -16 -855 0 -820 71 -1499 258
-2189 603 -1389 694 -2444 1904 -2943 3373 -206 609 -306 1219 -306 1870 -1
740 126 1422 393 2120 175 459 464 981 765 1384 964 1287 2401 2126 3975 2320
145 18 321 33 515 45 97 6 515 -3 648 -14z"/>
<path d="M7355 13254 c-454 -29 -769 -75 -1129 -166 -879 -221 -1648 -622
-2346 -1222 -251 -216 -598 -588 -811 -871 -587 -780 -967 -1714 -1089 -2675
-37 -296 -44 -414 -44 -740 0 -326 7 -447 45 -745 68 -546 222 -1084 461
-1615 387 -859 1019 -1636 1802 -2217 761 -565 1708 -942 2656 -1057 268 -33
396 -40 710 -40 325 0 446 7 740 44 785 99 1582 382 2250 798 680 424 1265
985 1712 1642 493 725 820 1587 927 2445 38 302 45 419 45 745 0 325 -7 446
-44 740 -99 785 -382 1583 -798 2250 -714 1145 -1800 1999 -3064 2408 -565
183 -1086 268 -1688 276 -151 2 -302 2 -335 0z m3155 -2169 c153 -19 185 -26
279 -59 116 -42 225 -101 318 -172 61 -46 223 -206 223 -220 0 -7 4 -14 8 -16
14 -5 76 -98 109 -163 75 -144 96 -213 133 -429 14 -81 14 -1911 0 -1992 -25
-144 -34 -184 -62 -264 -66 -184 -139 -300 -283 -445 -86 -87 -182 -165 -202
-165 -4 0 -14 -6 -22 -14 -39 -36 -182 -97 -331 -143 l-85 -26 -1145 -4 c-630
-2 -1155 -5 -1167 -8 l-23 -5 0 -1026 c0 -1070 0 -1079 -42 -1214 -18 -60 -24
-73 -62 -150 -65 -132 -85 -160 -185 -262 -47 -49 -91 -88 -97 -88 -7 0 -14
-4 -16 -8 -4 -12 -97 -76 -144 -100 -48 -24 -169 -65 -249 -83 -91 -21 -2687
-21 -2759 0 -44 13 -98 38 -172 79 -50 28 -170 162 -202 225 -69 137 -90 294
-58 427 51 212 212 382 429 451 57 18 102 19 1080 19 1157 0 1100 -4 1178 76
23 23 48 60 55 81 21 58 20 1386 0 1434 -21 51 -53 86 -104 117 l-47 27 -1065
5 c-1057 5 -1065 5 -1121 27 -31 11 -75 33 -97 47 -23 14 -45 26 -50 26 -11 0
-172 160 -172 171 0 6 -9 22 -20 37 -11 15 -32 61 -46 102 -73 205 -19 436
139 598 34 35 71 68 83 75 72 42 177 87 222 96 35 7 390 11 1070 11 1070 0
1047 -1 1117 45 41 26 56 43 83 91 l22 42 0 690 c0 763 3 729 -66 796 -79 77
15 70 -1164 76 -1139 6 -1072 3 -1187 57 -258 120 -407 420 -334 675 35 122
77 194 162 279 75 75 153 126 234 151 107 35 134 35 2945 37 2422 1 2781 -1
2890 -14z"/>
<path d="M8275 9888 c-3 -7 -4 -397 -3 -866 l3 -852 875 0 c601 0 888 4 915
11 73 20 124 49 174 99 62 62 100 138 112 229 6 43 9 278 7 574 l-3 502 -25
62 c-51 127 -165 219 -301 242 -99 17 -1748 15 -1754 -1z"/>
</g>
</svg>
